<mxfile host="app.diagrams.net" modified="2023-09-05T08:26:13.916Z" agent="Mozilla/5.0 (Windows NT 10.0; Win64; x64) AppleWebKit/537.36 (KHTML, like Gecko) Chrome/116.0.0.0 Safari/537.36" etag="cwT66_UUpNe4XQ83FYUU" version="21.7.2" type="github">
  <diagram name="Страница — 1" id="T-3xD0DyzHITFq4uGjCN">
    <mxGraphModel dx="2206" dy="1166" grid="1" gridSize="10" guides="1" tooltips="1" connect="1" arrows="1" fold="1" page="1" pageScale="1" pageWidth="827" pageHeight="1169" math="0" shadow="0">
      <root>
        <mxCell id="0" />
        <mxCell id="1" parent="0" />
        <mxCell id="64bh6hLLo012Qr4FLgpR-6" value="" style="swimlane;direction=west;" vertex="1" parent="1">
          <mxGeometry x="24" y="21" width="780" height="730" as="geometry">
            <mxRectangle x="24" y="20" width="50" height="40" as="alternateBounds" />
          </mxGeometry>
        </mxCell>
        <mxCell id="64bh6hLLo012Qr4FLgpR-9" value="УЗЕЛ:" style="text;html=1;strokeColor=default;fillColor=none;align=left;verticalAlign=middle;whiteSpace=wrap;rounded=0;glass=0;" vertex="1" parent="64bh6hLLo012Qr4FLgpR-6">
          <mxGeometry y="707" width="80" height="23" as="geometry" />
        </mxCell>
        <mxCell id="64bh6hLLo012Qr4FLgpR-10" value="НОМЕР:" style="text;html=1;strokeColor=default;fillColor=none;align=left;verticalAlign=middle;whiteSpace=wrap;rounded=0;glass=0;" vertex="1" parent="64bh6hLLo012Qr4FLgpR-6">
          <mxGeometry x="700" y="707" width="80" height="23" as="geometry" />
        </mxCell>
        <mxCell id="64bh6hLLo012Qr4FLgpR-11" value="ЗАГОЛОВОК:&amp;nbsp;" style="text;html=1;strokeColor=none;fillColor=none;align=left;verticalAlign=middle;whiteSpace=wrap;rounded=0;glass=0;" vertex="1" parent="64bh6hLLo012Qr4FLgpR-6">
          <mxGeometry x="80" y="707" width="80" height="23" as="geometry" />
        </mxCell>
        <mxCell id="64bh6hLLo012Qr4FLgpR-12" value="А-0 Установление цены товара" style="text;html=1;strokeColor=none;fillColor=none;align=center;verticalAlign=middle;whiteSpace=wrap;rounded=0;glass=0;" vertex="1" parent="64bh6hLLo012Qr4FLgpR-6">
          <mxGeometry x="80" y="707" width="620" height="23" as="geometry" />
        </mxCell>
        <mxCell id="64bh6hLLo012Qr4FLgpR-4" value="" style="group" vertex="1" connectable="0" parent="64bh6hLLo012Qr4FLgpR-6">
          <mxGeometry x="195" y="240" width="390" height="250" as="geometry" />
        </mxCell>
        <mxCell id="64bh6hLLo012Qr4FLgpR-1" value="" style="rounded=0;whiteSpace=wrap;html=1;" vertex="1" parent="64bh6hLLo012Qr4FLgpR-4">
          <mxGeometry width="390" height="249.99999999999997" as="geometry" />
        </mxCell>
        <mxCell id="64bh6hLLo012Qr4FLgpR-3" value="A0" style="text;html=1;strokeColor=none;fillColor=none;align=center;verticalAlign=middle;whiteSpace=wrap;rounded=0;" vertex="1" parent="64bh6hLLo012Qr4FLgpR-4">
          <mxGeometry x="360" y="224.13793103448273" width="30" height="25.86206896551724" as="geometry" />
        </mxCell>
      </root>
    </mxGraphModel>
  </diagram>
</mxfile>
